<?xml version="1.0" encoding="UTF-8" standalone="no"?>
<!DOCTYPE svg PUBLIC "-//W3C//DTD SVG 1.1//EN" "http://www.w3.org/Graphics/SVG/1.1/DTD/svg11.dtd">
<svg width="100%" height="100%" viewBox="0 0 500 209" version="1.1" xmlns="http://www.w3.org/2000/svg" xmlns:xlink="http://www.w3.org/1999/xlink" xml:space="preserve" xmlns:serif="http://www.serif.com/" style="fill-rule:evenodd;clip-rule:evenodd;stroke-linejoin:round;stroke-miterlimit:2;">
    <g transform="matrix(1.56104,0,0,1.56104,-140.259,-106.15)">
        <g transform="matrix(1,0,0,1,6.95,0)">
            <path d="M184.7,194.5L107.7,194.5C94,194.5 82.9,183.4 82.9,169.7L82.9,92.7C82.9,79.1 94,68 107.7,68L184.7,68C198.4,68 209.5,79.1 209.5,92.8L209.5,169.8C209.4,183.4 198.4,194.5 184.7,194.5Z" style="fill:url(#_Linear1);fill-rule:nonzero;"/>
        </g>
        <g transform="matrix(1,0,0,1,6.95,0)">
            <path d="M275.4,146.1C273.4,142.5 270.6,139.6 267,137.7C263.4,135.7 259.2,134.7 254.4,134.7L241.4,134.7C240,134.7 238.9,135.1 238.1,135.8C237.3,136.6 237,137.6 237,139.1L237,178.8C237,180.2 237.4,181.3 238.2,182C239,182.8 240.1,183.2 241.4,183.2L254.4,183.2C259.2,183.2 263.4,182.2 267,180.2C270.6,178.2 273.4,175.4 275.4,171.7C277.4,168 278.4,163.7 278.4,158.8C278.3,154 277.3,149.7 275.4,146.1ZM267.6,168.4C266.4,171 264.6,173 262.3,174.4C260,175.8 257.2,176.5 254,176.5L245.8,176.5L245.8,141.3L254,141.3C257.2,141.3 260,142 262.3,143.4C264.6,144.8 266.4,146.8 267.6,149.5C268.8,152.1 269.4,155.3 269.4,159C269.4,162.6 268.8,165.8 267.6,168.4Z" style="fill:rgb(19,62,89);fill-rule:nonzero;"/>
            <path d="M304.3,149C303.8,148.5 303.1,148.2 302,148.2C300.1,148.2 298.4,148.6 296.9,149.6C295.3,150.6 294.1,152 293.1,153.7C292.7,154.5 292.3,155.4 292,156.3L292,151.7C292,150.5 291.7,149.7 291,149.2C290.3,148.7 289.5,148.4 288.4,148.4L288,148.4C286.9,148.4 286.1,148.7 285.4,149.2C284.7,149.7 284.4,150.6 284.4,151.8L284.4,180C284.4,181.2 284.7,182 285.4,182.5C286.1,183 287,183.3 288.1,183.3L288.8,183.3C289.9,183.3 290.8,183 291.5,182.5C292.2,182 292.6,181.1 292.6,180L292.6,164.8C292.6,162.8 293,161.2 293.7,159.9C294.4,158.6 295.4,157.6 296.7,156.9C298,156.3 299.5,155.9 301.2,155.9C302.5,155.9 303.4,155.5 304,154.8C304.6,154 304.9,153 304.9,151.5C305,150.3 304.8,149.5 304.3,149Z" style="fill:rgb(19,62,89);fill-rule:nonzero;"/>
            <path d="M338.1,156.3C336.7,153.6 334.8,151.5 332.2,150C329.6,148.5 326.7,147.8 323.2,147.8C319.7,147.8 316.7,148.5 314.2,150C311.7,151.5 309.7,153.6 308.3,156.3C306.9,159 306.2,162.2 306.2,165.8C306.2,169.4 306.9,172.6 308.3,175.3C309.7,178 311.6,180.1 314.2,181.6C316.8,183.1 319.7,183.8 323.2,183.8C326.6,183.8 329.6,183.1 332.2,181.6C334.8,180.1 336.7,178 338.1,175.3C339.5,172.6 340.2,169.4 340.2,165.8C340.1,162.1 339.5,159 338.1,156.3ZM330.7,171.9C330,173.6 329.1,175 327.8,175.9C326.5,176.8 325,177.3 323.2,177.3C320.5,177.3 318.5,176.3 317,174.2C315.5,172.2 314.8,169.3 314.8,165.7C314.8,163.3 315.1,161.2 315.8,159.5C316.5,157.7 317.4,156.4 318.7,155.5C320,154.6 321.5,154.1 323.3,154.1C326,154.1 328,155.1 329.5,157.2C331,159.3 331.7,162.1 331.7,165.8C331.7,168.1 331.3,170.2 330.7,171.9Z" style="fill:rgb(19,62,89);fill-rule:nonzero;"/>
            <path d="M376.5,156.3C375.3,153.6 373.7,151.5 371.6,150C369.5,148.5 366.9,147.8 364,147.8C361.2,147.8 358.8,148.5 356.8,149.8C355.7,150.5 354.7,151.4 353.8,152.4L353.8,151.7C353.8,150.5 353.5,149.7 352.8,149.2C352.1,148.7 351.3,148.4 350.3,148.4L349.9,148.4C348.8,148.4 348,148.7 347.3,149.2C346.6,149.7 346.3,150.6 346.3,151.8L346.3,193.5C345.4,192.6 344.6,191.8 343.7,190.9C343,190.3 342.1,190.3 341.5,190.9C340.9,191.5 340.8,192.4 341.4,193.1C341.6,193.3 341.8,193.5 342,193.8C343.5,195.3 348.8,200.6 349.9,201.7C350.1,201.9 350.3,202 350.5,201.7C350.8,201.3 351.2,201 351.5,200.7C352.9,199.3 354.3,197.9 355.7,196.5C356.8,195.4 357.9,194.4 358.9,193.3C359.3,192.9 359.5,192.4 359.3,191.8C359,190.5 357.5,190.2 356.6,191.1C355.9,191.8 355.2,192.5 354.5,193.2L354.5,180.8C355,181.2 355.5,181.6 356.1,182C358.1,183.3 360.5,184 363.3,184C366.2,184 368.8,183.3 371.1,181.8C373.4,180.3 375.1,178.2 376.4,175.5C377.6,172.8 378.3,169.6 378.3,166.1C378.3,162.1 377.7,159 376.5,156.3ZM368.8,171.7C368.1,173.4 367.1,174.7 365.8,175.6C364.5,176.5 363,177 361.2,177C359.7,177 358.3,176.7 357.1,176C356.2,175.5 355.3,174.8 354.5,174L354.5,157.5C355.3,156.6 356.2,155.8 357.2,155.3C358.4,154.6 359.7,154.3 361.3,154.3C364,154.3 366.1,155.3 367.6,157.3C369.1,159.3 369.9,162.1 369.9,165.7C369.9,168 369.5,170 368.8,171.7Z" style="fill:rgb(19,62,89);fill-rule:nonzero;"/>
        </g>
        <g transform="matrix(1,0,0,1,6.95,0)">
            <path d="M281.9,127.1L275.2,120.2C276.8,118.7 278.1,116.9 279.2,114.9C281.2,111.1 282.2,106.8 282.2,101.9C282.2,96.9 281.2,92.6 279.2,88.8C277.2,85 274.4,82.2 270.8,80.1C267.2,78.1 263.2,77.1 258.6,77.1C254.1,77.1 250,78.1 246.4,80.1C242.8,82.1 240,85 238,88.8C236,92.6 235,96.9 235,101.9C235,106.8 236,111.2 238,114.9C240,118.7 242.8,121.6 246.4,123.6C250,125.6 254,126.7 258.6,126.7C262.3,126.7 265.7,126 268.7,124.6L272.4,128.5C273.5,129.7 274.5,130.4 275.4,130.9C276.3,131.3 277.3,131.5 278.5,131.5L279.3,131.5C280.3,131.5 281.1,131.3 281.8,130.9C282.5,130.5 282.9,130 282.9,129.3C283,128.6 282.7,127.9 281.9,127.1ZM251.2,117.9C249,116.5 247.3,114.5 246,111.8C244.7,109.1 244.1,105.8 244.1,101.9C244.1,98 244.7,94.7 246,91.9C247.3,89.2 249,87.1 251.2,85.7C253.4,84.3 255.9,83.6 258.7,83.6C261.5,83.6 263.9,84.3 266.2,85.7C268.4,87.1 270.2,89.1 271.5,91.9C272.8,94.6 273.4,98 273.4,101.9C273.4,105.8 272.8,109.1 271.5,111.8C270.2,114.5 268.5,116.6 266.2,117.9C264,119.3 261.5,120 258.7,120C255.9,119.9 253.4,119.2 251.2,117.9Z" style="fill:rgb(26,101,163);fill-rule:nonzero;"/>
            <path d="M317.1,91.9C316.4,91.4 315.5,91.1 314.3,91.1L313.6,91.1C312.4,91.1 311.5,91.4 310.8,91.9C310.1,92.4 309.8,93.3 309.8,94.5L309.8,117C309,117.8 308.2,118.4 307.3,118.9C306.1,119.6 304.6,119.9 303,119.9C300.9,119.9 299.3,119.3 298.2,118.2C297.1,117.1 296.6,115.2 296.6,112.6L296.6,94.5C296.6,93.3 296.3,92.4 295.6,91.9C294.9,91.4 294,91.1 292.9,91.1L292.2,91.1C291,91.1 290.1,91.4 289.4,91.9C288.7,92.4 288.3,93.3 288.3,94.5L288.3,113.7C288.3,118.1 289.4,121.4 291.6,123.5C293.8,125.6 296.7,126.6 300.3,126.6C303.1,126.6 305.6,125.9 307.6,124.6C308.6,123.9 309.6,123.1 310.5,122.1L310.5,122.8C310.5,124 310.8,124.8 311.5,125.3C312.2,125.8 313,126.1 314,126.1L314.5,126.1C315.5,126.1 316.4,125.8 317.1,125.3C317.8,124.8 318.1,123.9 318.1,122.8L318.1,94.5C318.2,93.3 317.8,92.4 317.1,91.9Z" style="fill:rgb(26,101,163);fill-rule:nonzero;"/>
            <path d="M333,91.9C332.3,91.4 331.4,91.1 330.2,91.1L329.5,91.1C328.3,91.1 327.4,91.4 326.8,91.9C326.1,92.4 325.8,93.3 325.8,94.5L325.8,122.7C325.8,123.9 326.1,124.7 326.8,125.2C327.5,125.7 328.4,126 329.5,126L330.2,126C331.3,126 332.2,125.7 332.9,125.2C333.6,124.7 334,123.8 334,122.7L334,94.5C334.1,93.3 333.7,92.4 333,91.9Z" style="fill:rgb(26,101,163);fill-rule:nonzero;"/>
            <path d="M368.7,118.9C368.3,118.3 367.9,118 367.3,117.8C366.7,117.6 366,117.7 365.3,118C362.7,119.2 360.3,119.9 358.2,119.9C356.3,119.9 354.6,119.5 353.1,118.6C351.6,117.7 350.5,116.4 349.7,114.7C348.9,113 348.5,110.9 348.5,108.5C348.5,106.1 348.9,104 349.7,102.3C350.5,100.6 351.6,99.3 353,98.5C354.4,97.6 356,97.2 357.9,97.2C359.1,97.2 360.2,97.3 361.4,97.6C362.6,97.8 363.8,98.2 364.9,98.6C365.7,98.9 366.3,99 366.9,98.8C367.5,98.6 368,98.2 368.4,97.7C368.8,97.1 368.9,96.5 368.7,95.9C368.5,95.3 368.1,94.7 367.5,94.1C366.2,93.1 364.6,92.3 362.8,91.7C361,91.1 359,90.8 356.8,90.8C353.6,90.8 350.8,91.5 348.3,93C345.8,94.5 343.9,96.6 342.4,99.3C341,102 340.3,105.2 340.3,108.7C340.3,112.2 341,115.4 342.4,118.1C343.8,120.8 345.8,122.9 348.2,124.4C350.7,125.9 353.4,126.6 356.5,126.6C359,126.6 361.2,126.2 363,125.4C364.8,124.6 366.5,123.6 368,122.4C368.7,121.8 369.1,121.2 369.2,120.6C369.2,120 369.1,119.4 368.7,118.9Z" style="fill:rgb(26,101,163);fill-rule:nonzero;"/>
            <path d="M402.1,121.3L390,106.6L401.4,95.3C402.1,94.7 402.4,94 402.4,93.4C402.4,92.8 402.2,92.2 401.6,91.8C401,91.4 400.3,91.2 399.4,91.2L398.7,91.2C397.7,91.2 396.9,91.4 396.3,91.7C395.7,92.1 394.8,92.8 393.8,93.9L382.5,105.6L382.5,79.6C382.5,78.4 382.1,77.6 381.4,77.1C380.7,76.6 379.8,76.3 378.7,76.3L378,76.3C376.9,76.3 376,76.6 375.3,77.1C374.6,77.6 374.2,78.5 374.2,79.6L374.2,122.8C374.2,124 374.6,124.8 375.3,125.3C376,125.8 376.9,126.1 378,126.1L378.7,126.1C379.8,126.1 380.7,125.8 381.4,125.3C382.1,124.8 382.5,123.9 382.5,122.8L382.5,109.3L393.8,123.5C394.6,124.6 395.5,125.3 396.3,125.6C397.1,126 398.1,126.1 399.2,126.1L399.9,126.1C400.9,126.1 401.7,125.9 402.3,125.4C402.9,125 403.2,124.4 403.2,123.6C403.2,122.9 402.8,122.1 402.1,121.3Z" style="fill:rgb(26,101,163);fill-rule:nonzero;"/>
            <path d="M353,86C351.8,85.6 350.7,85.2 349.5,84.7C344.9,83 340.4,81.4 335.8,79.7C332.7,78.6 329.5,77.4 326.4,76.3C326.3,76.3 326.1,76.2 326,76.2C325.8,76.2 325.9,76.3 325.9,76.4L325.9,81.3C325.9,81.5 325.9,81.6 325.4,81.5C324.8,81.4 324.3,81.3 323.7,81.2C318.1,80.3 312.4,79.3 306.8,78.4C306.6,78.4 306.5,78.3 306.3,78.4C306.3,78.5 306.4,78.5 306.5,78.5C309.3,79.5 312.1,80.5 314.8,81.5C317.9,82.6 321,83.7 324.1,84.8C327.2,85.9 330.3,87 333.4,88.2C333.5,88.2 333.6,88.3 333.7,88.3C333.8,88.3 333.8,88.2 333.8,88.2L333.8,83.2C333.8,82.9 333.8,82.9 334.4,83C340,83.9 345.5,84.8 351.1,85.7C351.9,85.8 352.6,85.9 353.4,86.1L353.5,86.1C353.2,86.1 353.1,86 353,86Z" style="fill:rgb(26,101,163);fill-rule:nonzero;"/>
        </g>
        <g transform="matrix(1,0,0,1,6.95,0)">
            <path d="M190.8,112.9C190.8,110.4 189.8,107.9 188.1,106L175.4,92C173.5,89.9 170.7,88.7 167.9,88.7L134.7,88.7C129.1,88.7 124.5,93.3 124.5,98.9L124.5,108.4L102.7,108.4C100.6,108.4 98.8,110.1 98.8,112.3C98.8,114.5 100.5,116.2 102.7,116.2L124.5,116.2L124.5,138.2L102.7,138.2C100.6,138.2 98.8,139.9 98.8,142.1C98.8,144.2 100.5,146 102.7,146L124.5,146L124.5,159.3L102.7,159.3C100.6,159.3 98.8,161 98.8,163.2C98.8,165.3 100.5,167.1 102.7,167.1L125.2,167.1C126.7,171 130.4,173.7 134.8,173.7L180.8,173.7C186.4,173.7 191,169.1 191,163.5L190.8,112.9Z" style="fill:white;fill-rule:nonzero;"/>
            <g>
                <path d="M137.6,120C137.6,117.9 135.9,116.1 133.7,116.1L115,116.1C112.9,116.1 111.1,117.8 111.1,120C111.1,122.1 112.8,123.9 115,123.9L123.6,123.9L123.6,138.2L130.6,138.2L130.6,123.9L133.7,123.9C135.9,123.9 137.6,122.2 137.6,120Z" style="fill:rgb(19,62,89);fill-rule:nonzero;"/>
                <path d="M115.1,153.7L123.7,153.7L123.7,159.3L130.7,159.3L130.7,146L115.1,146C113,146 111.2,147.7 111.2,149.9C111.2,152 113,153.7 115.1,153.7Z" style="fill:rgb(19,62,89);fill-rule:nonzero;"/>
                <path d="M191,112.9C191,110.3 190,107.8 188.3,105.9L175.4,91.8C173.4,89.7 170.7,88.4 167.7,88.4L134,88.4C128.3,88.4 123.6,93 123.6,98.8L123.6,100.7L115,100.7C112.9,100.7 111.1,102.4 111.1,104.6C111.1,106.7 112.8,108.5 115,108.5L133.7,108.5C135.8,108.5 137.6,106.8 137.6,104.6C137.6,102.5 135.9,100.7 133.7,100.7L130.6,100.7L130.6,98.6C130.6,97 131.9,95.8 133.4,95.8L167.1,95.8L167.1,110.9C167.1,112.5 168.4,113.8 170,113.8L173.7,113.8L173.7,113.7L184.2,113.7L184.1,164.2C184.1,165.8 182.8,167 181.3,167L110.7,167C108.6,167 107,168.7 107,170.7L107,170.8C107,172.9 108.7,174.5 110.7,174.5L180.5,174.5C186.2,174.5 190.9,169.9 190.9,164.1L191,112.9ZM175.3,107.2C174.5,107.2 173.9,106.6 173.9,105.8L173.9,100.3L180,107.2L175.3,107.2Z" style="fill:rgb(19,62,89);fill-rule:nonzero;"/>
            </g>
            <g opacity="0.96">
                <path d="M156.3,143.3L153.5,140.4C154.2,139.8 154.7,139 155.2,138.2C156,136.6 156.5,134.8 156.5,132.7C156.5,130.6 156.1,128.8 155.2,127.2C154.3,125.6 153.2,124.4 151.7,123.6C150.2,122.8 148.5,122.3 146.6,122.3C144.7,122.3 143,122.7 141.5,123.6C140,124.4 138.8,125.7 138,127.2C137.2,128.8 136.7,130.6 136.7,132.7C136.7,134.8 137.1,136.6 138,138.2C138.8,139.8 140,141 141.5,141.9C143,142.8 144.7,143.2 146.6,143.2C148.2,143.2 149.6,142.9 150.9,142.3L152.4,143.9C152.9,144.4 153.3,144.7 153.7,144.9C154.1,145.1 154.5,145.2 155,145.2L155.3,145.2C155.7,145.2 156.1,145.1 156.4,144.9C156.7,144.7 156.8,144.5 156.9,144.2C157,143.9 156.6,143.6 156.3,143.3ZM143.4,139.4C142.5,138.8 141.7,138 141.2,136.8C140.7,135.7 140.4,134.3 140.4,132.6C140.4,130.9 140.7,129.6 141.2,128.4C141.7,127.3 142.5,126.4 143.4,125.8C144.3,125.2 145.4,124.9 146.6,124.9C147.8,124.9 148.8,125.2 149.7,125.8C150.6,126.4 151.4,127.2 151.9,128.4C152.4,129.5 152.7,130.9 152.7,132.6C152.7,134.3 152.4,135.6 151.9,136.8C151.4,137.9 150.6,138.8 149.7,139.4C148.8,140 147.7,140.3 146.6,140.3C145.4,140.3 144.3,140 143.4,139.4Z" style="fill:rgb(26,101,163);fill-rule:nonzero;"/>
                <path d="M177.7,127.3C176.9,125.8 175.7,124.6 174.2,123.8C172.7,123 170.9,122.6 168.9,122.6L163.4,122.6C162.8,122.6 162.3,122.8 162,123.1C161.7,123.4 161.5,123.9 161.5,124.5L161.5,141C161.5,141.6 161.7,142 162,142.4C162.3,142.7 162.8,142.9 163.4,142.9L168.9,142.9C170.9,142.9 172.7,142.5 174.2,141.7C175.7,140.9 176.9,139.7 177.7,138.1C178.5,136.6 178.9,134.7 178.9,132.7C178.9,130.6 178.5,128.8 177.7,127.3ZM174.4,136.7C173.9,137.8 173.1,138.6 172.2,139.2C171.3,139.8 170.1,140.1 168.7,140.1L165.3,140.1L165.3,125.3L168.7,125.3C170.1,125.3 171.2,125.6 172.2,126.2C173.2,126.8 173.9,127.6 174.4,128.7C174.9,129.8 175.2,131.1 175.2,132.7C175.1,134.2 174.9,135.6 174.4,136.7Z" style="fill:rgb(19,62,89);fill-rule:nonzero;"/>
            </g>
        </g>
    </g>
    <defs>
        <linearGradient id="_Linear1" x1="0" y1="0" x2="1" y2="0" gradientUnits="userSpaceOnUse" gradientTransform="matrix(126.508,0,0,126.508,82.9399,131.252)"><stop offset="0" style="stop-color:rgb(30,170,198);stop-opacity:1"/><stop offset="0" style="stop-color:rgb(30,170,198);stop-opacity:1"/><stop offset="1" style="stop-color:rgb(16,101,171);stop-opacity:1"/></linearGradient>
    </defs>
</svg>
